<svg xmlns="http://www.w3.org/2000/svg" viewBox="0 0 237 194" width="237" height="194">
<path transform="translate(20.0,138.1)" d="M42 0L14.640 0L3.600-84L19.320-84L27.480-11.040L29.640-11.040L40.200-84L67.560-84L78.120-11.040L80.280-11.040L88.440-84L104.160-84L93.120 0L65.760 0L54.960-74.640L52.800-74.640L42 0Z" fill="#ffffff"/>
<path transform="translate(20.0,138.1)" d="M140.160 0L112.800 0L101.760-84L117.480-84L125.640-11.040L127.800-11.040L138.360-84L165.720-84L176.280-11.040L178.440-11.040L186.600-84L202.320-84L191.280 0L163.920 0L153.120-74.640L150.960-74.640L140.160 0Z" fill="#2ec4b6"/>
</svg>