<svg xmlns="http://www.w3.org/2000/svg" viewBox="0 0 740 183" width="740" height="183">
<path transform="translate(40.0,118.7)" d="M28 0L9.760 0L2.400-56L12.880-56L18.320-7.360L19.760-7.360L26.800-56L45.040-56L52.080-7.360L53.520-7.360L58.960-56L69.440-56L62.080 0L43.840 0L36.640-49.760L35.200-49.760L28 0Z" fill="#ffffff"/>
<path transform="translate(40.0,118.7)" d="M95.680 1.120L95.680 1.120Q85.120 1.120 78.880-4.680Q72.640-10.480 72.640-21.280L72.640-21.280L72.640-34.720Q72.640-45.520 78.880-51.320Q85.120-57.120 95.680-57.120L95.680-57.120Q106.240-57.120 112.480-51.320Q118.720-45.520 118.720-34.720L118.720-34.720L118.720-21.280Q118.720-10.480 112.480-4.680Q106.240 1.120 95.680 1.120ZM95.680-8.320L95.680-8.320Q101.600-8.320 104.880-11.760Q108.160-15.200 108.160-20.960L108.160-20.960L108.160-35.040Q108.160-40.800 104.880-44.240Q101.600-47.680 95.680-47.680L95.680-47.680Q89.840-47.680 86.520-44.240Q83.200-40.800 83.200-35.040L83.200-35.040L83.200-20.960Q83.200-15.200 86.520-11.760Q89.840-8.320 95.680-8.320Z" fill="#ffffff"/>
<path transform="translate(40.0,118.7)" d="M146.560 1.120L146.560 1.120Q136 1.120 129.760-4.680Q123.520-10.480 123.520-21.280L123.520-21.280L123.520-34.720Q123.520-45.520 129.760-51.320Q136-57.120 146.560-57.120L146.560-57.120Q157.120-57.120 163.360-51.320Q169.600-45.520 169.600-34.720L169.600-34.720L169.600-21.280Q169.600-10.480 163.360-4.680Q157.120 1.120 146.560 1.120ZM146.560-8.320L146.560-8.320Q152.480-8.320 155.760-11.760Q159.040-15.200 159.040-20.960L159.040-20.960L159.040-35.040Q159.040-40.800 155.760-44.240Q152.480-47.680 146.560-47.680L146.560-47.680Q140.720-47.680 137.400-44.240Q134.080-40.800 134.080-35.040L134.080-35.040L134.080-20.960Q134.080-15.200 137.400-11.760Q140.720-8.320 146.560-8.320Z" fill="#ffffff"/>
<path transform="translate(40.0,118.7)" d="M197.120 0L174.080 0L174.080-9.280L181.440-9.280L181.440-46.720L174.080-46.720L174.080-56L197.120-56Q208.400-56 214.280-50.280Q220.160-44.560 220.160-33.280L220.160-33.280L220.160-22.720Q220.160-11.440 214.280-5.720Q208.400 0 197.120 0L197.120 0ZM192-46.400L192-9.600L197.280-9.600Q203.680-9.600 206.640-12.960Q209.600-16.320 209.600-22.400L209.600-22.400L209.600-33.600Q209.600-39.760 206.640-43.080Q203.680-46.400 197.280-46.400L197.280-46.400L192-46.400Z" fill="#ffffff"/>
<path transform="translate(40.0,118.7)" d="M245.200 1.120L245.200 1.120Q238.720 1.120 233.760-1.200Q228.800-3.520 226.000-7.840Q223.200-12.160 223.200-18.240L223.200-18.240L223.200-20.480L233.600-20.480L233.600-18.240Q233.600-13.200 236.720-10.680Q239.840-8.160 245.200-8.160L245.200-8.160Q250.640-8.160 253.320-10.320Q256-12.480 256-15.840L256-15.840Q256-18.160 254.680-19.600Q253.360-21.040 250.840-21.960Q248.320-22.880 244.720-23.680L244.720-23.680L242.880-24.080Q237.120-25.360 233.000-27.320Q228.880-29.280 226.680-32.480Q224.480-35.680 224.480-40.800L224.480-40.800Q224.480-45.920 226.920-49.560Q229.360-53.200 233.800-55.160Q238.240-57.120 244.240-57.120L244.240-57.120Q250.240-57.120 254.920-55.080Q259.600-53.040 262.280-49Q264.960-44.960 264.960-38.880L264.960-38.880L264.960-36.480L254.560-36.480L254.560-38.880Q254.560-42.080 253.320-44.040Q252.080-46 249.760-46.920Q247.440-47.840 244.240-47.840L244.240-47.840Q239.440-47.840 237.160-46.040Q234.880-44.240 234.880-41.120L234.880-41.120Q234.880-39.040 235.960-37.600Q237.040-36.160 239.200-35.200Q241.360-34.240 244.720-33.520L244.720-33.520L246.560-33.120Q252.560-31.840 257-29.840Q261.440-27.840 263.920-24.560Q266.400-21.280 266.400-16.160L266.400-16.160Q266.400-11.040 263.800-7.160Q261.200-3.280 256.440-1.080Q251.680 1.120 245.200 1.120Z" fill="#ffffff"/>
<path transform="translate(40.0,118.7)" d="M310.880 0L292.640 0L285.280-56L295.760-56L301.200-7.360L302.640-7.360L309.680-56L327.920-56L334.960-7.360L336.400-7.360L341.840-56L352.320-56L344.960 0L326.720 0L319.520-49.760L318.080-49.760L310.880 0Z" fill="#ffffff"/>
<path transform="translate(40.0,118.7)" d="M393.280 0L356.800 0L356.800-56L392.800-56L392.800-46.400L367.360-46.400L367.360-33.040L390.560-33.040L390.560-23.440L367.360-23.440L367.360-9.600L393.280-9.600L393.280 0Z" fill="#ffffff"/>
<path transform="translate(40.0,118.7)" d="M425.440 0L396.320 0L396.320-9.280L403.680-9.280L403.680-46.720L396.320-46.720L396.320-56L425.120-56Q430.240-56 434.040-54.280Q437.840-52.560 439.960-49.400Q442.080-46.240 442.080-41.840L442.080-41.840L442.080-41.040Q442.080-37.200 440.640-34.760Q439.200-32.320 437.240-31Q435.280-29.680 433.520-29.120L433.520-29.120L433.520-27.680Q435.280-27.200 437.360-25.880Q439.440-24.560 440.920-22.080Q442.400-19.600 442.400-15.600L442.400-15.600L442.400-14.800Q442.400-10.160 440.240-6.840Q438.080-3.520 434.280-1.760Q430.480 0 425.440 0L425.440 0ZM414.240-23.360L414.240-9.600L424.160-9.600Q427.600-9.600 429.720-11.280Q431.840-12.960 431.840-16.080L431.840-16.080L431.840-16.880Q431.840-20 429.760-21.680Q427.680-23.360 424.160-23.360L424.160-23.360L414.240-23.360ZM414.240-46.400L414.240-32.960L424-32.960Q427.280-32.960 429.400-34.640Q431.520-36.320 431.520-39.280L431.520-39.280L431.520-40.080Q431.520-43.120 429.440-44.760Q427.360-46.400 424-46.400L424-46.400L414.240-46.400Z" fill="#ffffff"/>
<path transform="translate(40.0,118.7)" d="M467.280 1.120L467.280 1.120Q460.800 1.120 455.840-1.200Q450.880-3.520 448.080-7.840Q445.280-12.160 445.280-18.240L445.280-18.240L445.280-20.480L455.680-20.480L455.680-18.240Q455.680-13.200 458.800-10.680Q461.920-8.160 467.280-8.160L467.280-8.160Q472.720-8.160 475.400-10.320Q478.080-12.480 478.080-15.840L478.080-15.840Q478.080-18.160 476.760-19.600Q475.440-21.040 472.920-21.960Q470.400-22.880 466.800-23.680L466.800-23.680L464.960-24.080Q459.200-25.360 455.080-27.320Q450.960-29.280 448.760-32.480Q446.560-35.680 446.560-40.800L446.560-40.800Q446.560-45.920 449-49.560Q451.440-53.200 455.880-55.160Q460.320-57.120 466.320-57.120L466.320-57.120Q472.320-57.120 477-55.080Q481.680-53.040 484.360-49Q487.040-44.960 487.040-38.880L487.040-38.880L487.040-36.480L476.640-36.480L476.640-38.880Q476.640-42.080 475.400-44.040Q474.160-46 471.840-46.920Q469.520-47.840 466.320-47.840L466.320-47.840Q461.520-47.840 459.240-46.040Q456.960-44.240 456.960-41.120L456.960-41.120Q456.960-39.040 458.040-37.600Q459.120-36.160 461.280-35.200Q463.440-34.240 466.800-33.520L466.800-33.520L468.640-33.120Q474.640-31.840 479.080-29.840Q483.520-27.840 486-24.560Q488.480-21.280 488.480-16.160L488.480-16.160Q488.480-11.040 485.880-7.160Q483.280-3.280 478.520-1.080Q473.760 1.120 467.280 1.120Z" fill="#ffffff"/>
<path transform="translate(40.0,118.7)" d="M503.680 0L493.120 0L493.120-56L503.680-56L503.680 0Z" fill="#ffffff"/>
<path transform="translate(40.0,118.7)" d="M534.560 0L524 0L524-46.400L507.680-46.400L507.680-56L550.880-56L550.880-46.400L534.560-46.400L534.560 0Z" fill="#ffffff"/>
<path transform="translate(40.0,118.7)" d="M591.360 0L554.880 0L554.880-56L590.880-56L590.880-46.400L565.440-46.400L565.440-33.040L588.640-33.040L588.640-23.440L565.440-23.440L565.440-9.600L591.360-9.600L591.360 0Z" fill="#ffffff"/>
<path transform="translate(40.0,118.7)" d="M615.440 1.120L615.440 1.120Q608.960 1.120 604-1.200Q599.040-3.520 596.240-7.840Q593.440-12.160 593.440-18.240L593.440-18.240L593.440-20.480L603.840-20.480L603.840-18.240Q603.840-13.200 606.960-10.680Q610.080-8.160 615.440-8.160L615.440-8.160Q620.880-8.160 623.560-10.320Q626.240-12.480 626.240-15.840L626.240-15.840Q626.240-18.160 624.920-19.600Q623.600-21.040 621.080-21.960Q618.560-22.880 614.960-23.680L614.960-23.680L613.120-24.080Q607.360-25.360 603.240-27.320Q599.120-29.280 596.920-32.480Q594.720-35.680 594.720-40.800L594.720-40.800Q594.720-45.920 597.160-49.560Q599.600-53.200 604.040-55.160Q608.480-57.120 614.480-57.120L614.480-57.120Q620.480-57.120 625.160-55.080Q629.840-53.040 632.520-49Q635.200-44.960 635.200-38.880L635.200-38.880L635.200-36.480L624.800-36.480L624.800-38.880Q624.800-42.080 623.560-44.040Q622.320-46 620-46.920Q617.680-47.840 614.480-47.840L614.480-47.840Q609.680-47.840 607.400-46.040Q605.120-44.240 605.120-41.120L605.120-41.120Q605.120-39.040 606.200-37.600Q607.280-36.160 609.440-35.200Q611.600-34.240 614.960-33.520L614.960-33.520L616.800-33.120Q622.800-31.840 627.240-29.840Q631.680-27.840 634.160-24.560Q636.640-21.280 636.640-16.160L636.640-16.160Q636.640-11.040 634.040-7.160Q631.440-3.280 626.680-1.080Q621.920 1.120 615.440 1.120Z" fill="#ffffff"/>
<path transform="translate(40.0,118.7)" d="M648 1.120L648 1.120Q644.720 1.120 642.520-1Q640.320-3.120 640.320-6.480L640.320-6.480Q640.320-9.840 642.520-11.960Q644.720-14.080 648-14.080L648-14.080Q651.200-14.080 653.360-11.960Q655.520-9.840 655.520-6.480L655.520-6.480Q655.520-3.120 653.360-1Q651.200 1.120 648 1.120Z" fill="#2ec4b6"/>
</svg>