<svg xmlns="http://www.w3.org/2000/svg" viewBox="0 0 32 32" width="32" height="32">
<rect width="32" height="32" rx="6" fill="#0a0a0a"/>
<path transform="translate(-1.0,22.9)" d="M6.944 0L2.420 0L0.595-13.888L3.194-13.888L4.543-1.825L4.900-1.825L6.646-13.888L11.170-13.888L12.916-1.825L13.273-1.825L14.622-13.888L17.221-13.888L15.396 0L10.872 0L9.087-12.340L8.730-12.340L6.944 0Z" fill="#ffffff"/>
<path transform="translate(-1.0,22.9)" d="M23.173 0L18.650 0L16.824-13.888L19.423-13.888L20.772-1.825L21.130-1.825L22.876-13.888L27.399-13.888L29.145-1.825L29.502-1.825L30.851-13.888L33.450-13.888L31.625 0L27.101 0L25.316-12.340L24.959-12.340L23.173 0Z" fill="#2ec4b6"/>
</svg>